HIERARCHY
ROOT Hips
{
 OFFSET 0.000000 0.000000 0.000000
 CHANNELS 6 Xposition Yposition Zposition Yrotation Xrotation Zrotation
 JOINT Chest
 {
  OFFSET 0.000000 9.585900 0.002600
  CHANNELS 3 Yrotation Xrotation Zrotation
  JOINT Chest2
  {
   OFFSET 0.000000 9.601200 -0.005300
   CHANNELS 3 Yrotation Xrotation Zrotation
   JOINT Chest3
   {
    OFFSET 0.000000 9.561800 0.000000
    CHANNELS 3 Yrotation Xrotation Zrotation
    JOINT Chest4
    {
     OFFSET 0.000000 9.552100 0.000000
     CHANNELS 3 Yrotation Xrotation Zrotation
     JOINT Neck
     {
      OFFSET 0.000000 14.453000 0.000000
      CHANNELS 3 Yrotation Xrotation Zrotation
      JOINT Head
      {
       OFFSET 0.000000 8.936500 -0.011300
       CHANNELS 3 Yrotation Xrotation Zrotation
       End Site
       {
        OFFSET 0.000000 17.073600 -0.006000
       }
      }
     }
     JOINT RightCollar
     {
      OFFSET -2.921100 9.558500 0.000000
      CHANNELS 3 Yrotation Xrotation Zrotation
      JOINT RightShoulder
      {
       OFFSET -13.519700 0.000000 0.000000
       CHANNELS 3 Yrotation Xrotation Zrotation
       JOINT RightElbow
       {
        OFFSET 0.000000 -29.696600 0.000000
        CHANNELS 3 Yrotation Xrotation Zrotation
        JOINT RightWrist
        {
         OFFSET 0.000000 -24.004700 0.000000
         CHANNELS 3 Yrotation Xrotation Zrotation
         End Site
         {
          OFFSET 0.000000 -17.728500 0.000000
         }
        }
       }
      }
     }
     JOINT LeftCollar
     {
      OFFSET 2.921100 9.558500 0.000000
      CHANNELS 3 Yrotation Xrotation Zrotation
      JOINT LeftShoulder
      {
       OFFSET 13.519700 0.000000 0.000000
       CHANNELS 3 Yrotation Xrotation Zrotation
       JOINT LeftElbow
       {
        OFFSET 0.000000 -29.696600 0.000000
        CHANNELS 3 Yrotation Xrotation Zrotation
        JOINT LeftWrist
        {
         OFFSET 0.000000 -24.004700 0.000000
         CHANNELS 3 Yrotation Xrotation Zrotation
         End Site
         {
          OFFSET 0.000000 -17.728500 0.000000
         }
        }
       }
      }
     }
    }
   }
  }
 }
 JOINT RightHip
 {
  OFFSET -7.771700 -0.012900 -0.001300
  CHANNELS 3 Yrotation Xrotation Zrotation
  JOINT RightKnee
  {
   OFFSET 0.000000 -40.869800 0.001200
   CHANNELS 3 Yrotation Xrotation Zrotation
   JOINT RightAnkle
   {
    OFFSET 0.000000 -39.717900 0.002100
    CHANNELS 3 Yrotation Xrotation Zrotation
    JOINT RightToe
    {
     OFFSET 0.000000 -4.965400 11.033500
     CHANNELS 3 Yrotation Xrotation Zrotation
     End Site
     {
      OFFSET 0.000000 -1.423100 5.872300
     }
    }
   }
  }
 }
 JOINT LeftHip
 {
  OFFSET 7.771700 -0.012900 -0.001300
  CHANNELS 3 Yrotation Xrotation Zrotation
  JOINT LeftKnee
  {
   OFFSET 0.000000 -40.869800 0.001200
   CHANNELS 3 Yrotation Xrotation Zrotation
   JOINT LeftAnkle
   {
    OFFSET 0.000000 -39.717900 0.002100
    CHANNELS 3 Yrotation Xrotation Zrotation
    JOINT LeftToe
    {
     OFFSET 0.000000 -4.965400 11.033500
     CHANNELS 3 Yrotation Xrotation Zrotation
     End Site
     {
      OFFSET 0.000000 -1.423100 5.872300
     }
    }
   }
  }
 }
}
MOTION
Frames: 6
Frame Time: 0.008333
0.000000 85.388000 0.000000 0.000000 -5.767877 0.000000 0.000000 11.653817 0.000000 0.000000 -5.885947 0.000000 0.000000 -0.000000 0.000000 0.000000 -0.000000 0.000000 0.000000 12.528835 0.000000 0.000000 0.711642 0.000000 0.000000 -0.000000 0.000000 0.000000 0.000000 -90.000000 0.000000 -2.309062 0.000000 0.000000 2.309062 0.000000 0.000000 -0.000000 0.000000 0.000000 -0.000000 90.000000 0.000000 -2.309062 0.000000 0.000000 2.309062 0.000000 0.000000 8.520406 0.000000 0.000000 1.905762 0.000000 -0.000000 -4.658285 0.000000 0.000000 -0.000000 0.000000 0.000000 8.520406 0.000000 0.000000 1.905762 0.000000 -0.000000 -4.658285 0.000000 0.000000 -0.000000 0.000000
-2.761197 49.964007 37.040224 172.687207 -34.198676 -6.198973 6.924976 23.784683 7.933038 0.867518 3.835483 0.870277 1.417501 6.126207 1.421741 5.331153 19.743987 5.343844 -0.634486 17.039529 0.017395 -1.179166 -4.149189 0.249295 2.546457 -2.123112 -6.737590 17.859838 -19.068272 -13.220123 -179.348787 -51.177652 178.905085 -8.677741 -14.591332 20.254468 -15.706319 -1.936831 1.115584 -5.449394 -27.887186 7.226407 148.428298 -48.316786 -175.420755 26.132923 -11.213119 -18.548051 0.672734 -46.925502 7.936148 -94.803667 82.562188 -82.828468 1.050411 -10.190364 -4.372954 -0.323734 1.171942 -0.152717 -8.852346 -50.750503 16.372421 -160.697012 84.784066 -168.577560 -2.081455 -11.679983 6.826337 -0.042485 -0.192061 -0.003378
-2.762697 49.967693 37.039487 172.648416 -34.228426 -6.168163 6.956273 23.842421 7.935955 0.873892 3.854887 0.872999 1.427421 6.155239 1.425997 5.352148 19.781896 5.348108 -0.756772 16.938655 -0.059000 -1.379844 -4.336219 0.150872 2.522047 -2.056343 -6.656800 17.900426 -19.055539 -13.179794 -179.405590 -51.272714 178.917586 -8.646501 -14.524202 20.399296 -15.744547 -1.867768 1.073336 -5.501836 -27.835269 7.245135 148.492467 -48.345396 -175.441202 26.128198 -11.274703 -18.455238 0.699788 -46.896776 7.922508 -94.760428 82.570917 -82.787723 1.064400 -10.176852 -4.376240 -0.336000 1.163310 -0.159001 -8.761776 -50.719360 16.333837 -160.519385 84.789137 -168.391745 -2.089782 -11.671088 6.844735 -0.036655 -0.199074 -0.006335
-2.763706 49.973648 37.037608 172.573953 -34.274474 -6.119625 7.020651 23.902552 7.940826 0.878077 3.857362 0.871730 1.432469 6.168130 1.428019 5.387085 19.836769 5.362720 -0.881264 16.835175 -0.139623 -1.583213 -4.528307 0.045684 2.494751 -1.992664 -6.579796 17.930004 -19.017726 -13.119715 -179.509283 -51.368696 178.969476 -8.607867 -14.469640 20.500564 -15.793617 -1.792803 1.025702 -5.560623 -27.768664 7.269856 148.570613 -48.380206 -175.464768 26.125415 -11.341346 -18.332367 0.763809 -46.856104 7.912638 -94.698496 82.573625 -82.723655 1.068987 -10.166034 -4.382427 -0.339399 1.159718 -0.159720 -8.658687 -50.663638 16.302469 -160.357791 84.796120 -168.232350 -2.080393 -11.671351 6.860695 -0.031320 -0.193438 -0.010927
-2.752761 49.973734 37.050903 172.469912 -34.234997 -6.137908 7.132775 23.851328 8.020029 0.880284 3.870932 0.875338 1.437550 6.179156 1.429683 5.422865 19.873830 5.373160 -1.003287 16.730680 -0.220323 -1.782012 -4.722408 -0.060238 2.464693 -1.929266 -6.506370 17.961338 -18.969971 -13.042228 -179.670418 -51.472054 179.065671 -8.562478 -14.426862 20.544889 -15.848603 -1.714868 0.973837 -5.621477 -27.692240 7.300231 148.636871 -48.427439 -175.480000 26.118353 -11.400968 -18.180812 0.754920 -46.904975 8.021358 -94.413530 82.597808 -82.422509 1.080747 -10.140097 -4.400494 -0.369099 1.172058 -0.169383 -8.670407 -50.705973 16.440332 -160.170734 84.785878 -168.038533 -2.063315 -11.649996 6.881648 -0.037340 -0.209488 -0.031499
-2.750179 49.977113 37.058716 172.432813 -34.220816 -6.140113 7.169560 23.851523 8.051186 0.887498 3.882349 0.876897 1.448892 6.196100 1.432219 5.438754 19.876852 5.370836 -1.116607 16.625488 -0.299070 -1.965416 -4.917772 -0.165435 2.436898 -1.920310 -6.472335 17.988400 -18.890539 -12.898257 -179.885246 -51.593341 179.202135 -8.520918 -14.397098 20.543173 -15.899242 -1.639211 0.920774 -5.681135 -27.611557 7.330548 148.669553 -48.490110 -175.472771 26.106231 -11.443513 -18.018317 0.742719 -46.921843 8.058151 -94.192027 82.628373 -82.201240 1.069550 -10.083641 -4.413562 -0.383894 1.142651 -0.170930 -8.665623 -50.716324 16.479959 -160.134281 84.795343 -168.002226 -2.065753 -11.625154 6.897695 -0.037211 -0.225387 -0.043491
